<?xml version="1.0" encoding="UTF-8" standalone="no"?><svg xmlns="http://www.w3.org/2000/svg" xmlns:xlink="http://www.w3.org/1999/xlink" contentScriptType="application/ecmascript" contentStyleType="text/css" height="897px" preserveAspectRatio="none" style="width:1203px;height:897px;" version="1.1" viewBox="0 0 1203 897" width="1203px" zoomAndPan="magnify"><defs><filter height="300%" id="fmhpxcdlu5ogc" width="300%" x="-1" y="-1"><feGaussianBlur result="blurOut" stdDeviation="2.0"/><feColorMatrix in="blurOut" result="blurOut2" type="matrix" values="0 0 0 0 0 0 0 0 0 0 0 0 0 0 0 0 0 0 .4 0"/><feOffset dx="4.0" dy="4.0" in="blurOut2" result="blurOut3"/><feBlend in="SourceGraphic" in2="blurOut3" mode="normal"/></filter></defs><g><text fill="#000000" font-family="sans-serif" font-size="18" lengthAdjust="spacingAndGlyphs" textLength="223" x="489.25" y="26.708">Reactive Authentication</text><ellipse cx="805.6875" cy="40.9531" fill="#000000" filter="url(#fmhpxcdlu5ogc)" rx="10" ry="10" style="stroke: none; stroke-width: 1.0;"/><rect fill="#FEFECE" filter="url(#fmhpxcdlu5ogc)" height="33.9688" rx="12.5" ry="12.5" style="stroke: #A80036; stroke-width: 1.5;" width="119" x="746.1875" y="70.9531"/><text fill="#000000" font-family="sans-serif" font-size="12" lengthAdjust="spacingAndGlyphs" textLength="95" x="760.1875" y="92.0918">A connects to B</text><rect fill="#FEFECE" filter="url(#fmhpxcdlu5ogc)" height="33.9688" rx="12.5" ry="12.5" style="stroke: #A80036; stroke-width: 1.5;" width="254" x="678.6875" y="124.9219"/><text fill="#000000" font-family="sans-serif" font-size="12" lengthAdjust="spacingAndGlyphs" textLength="230" x="692.6875" y="146.0605">App triggers GATT Client request on A</text><rect fill="#FEFECE" filter="url(#fmhpxcdlu5ogc)" height="33.9688" rx="12.5" ry="12.5" style="stroke: #A80036; stroke-width: 1.5;" width="173" x="719.1875" y="178.8906"/><text fill="#000000" font-family="sans-serif" font-size="12" lengthAdjust="spacingAndGlyphs" textLength="149" x="733.1875" y="200.0293">GATT Client request sent</text><polygon fill="#FEFECE" filter="url(#fmhpxcdlu5ogc)" points="640.1875,232.8594,971.1875,232.8594,983.1875,244.8594,971.1875,256.8594,640.1875,256.8594,628.1875,244.8594,640.1875,232.8594" style="stroke: #A80036; stroke-width: 1.5;"/><text fill="#000000" font-family="sans-serif" font-size="11" lengthAdjust="spacingAndGlyphs" textLength="331" x="640.1875" y="248.6675">GATT Server returns an ATT_ERROR_INSUFFICIENT_X error</text><text fill="#000000" font-family="sans-serif" font-size="11" lengthAdjust="spacingAndGlyphs" textLength="21" x="607.1875" y="242.2651">yes</text><text fill="#000000" font-family="sans-serif" font-size="11" lengthAdjust="spacingAndGlyphs" textLength="14" x="983.1875" y="242.2651">no</text><polygon fill="#FEFECE" filter="url(#fmhpxcdlu5ogc)" points="438.875,266.8594,614.875,266.8594,626.875,278.8594,614.875,290.8594,438.875,290.8594,426.875,278.8594,438.875,266.8594" style="stroke: #A80036; stroke-width: 1.5;"/><text fill="#000000" font-family="sans-serif" font-size="11" lengthAdjust="spacingAndGlyphs" textLength="176" x="438.875" y="282.6675">ENABLE_GATT_CLIENT_PAIRING</text><text fill="#000000" font-family="sans-serif" font-size="11" lengthAdjust="spacingAndGlyphs" textLength="21" x="405.875" y="276.2651">yes</text><text fill="#000000" font-family="sans-serif" font-size="11" lengthAdjust="spacingAndGlyphs" textLength="14" x="626.875" y="276.2651">no</text><rect fill="#FEFECE" filter="url(#fmhpxcdlu5ogc)" height="33.9688" rx="12.5" ry="12.5" style="stroke: #A80036; stroke-width: 1.5;" width="119" x="187.25" y="349.2617"/><text fill="#000000" font-family="sans-serif" font-size="12" lengthAdjust="spacingAndGlyphs" textLength="95" x="201.25" y="370.4004">start encryption</text><polygon fill="#FEFECE" filter="url(#fmhpxcdlu5ogc)" points="209.75,418.2305,283.75,418.2305,295.75,430.2305,283.75,442.2305,209.75,442.2305,197.75,430.2305,209.75,418.2305" style="stroke: #A80036; stroke-width: 1.5;"/><text fill="#000000" font-family="sans-serif" font-size="11" lengthAdjust="spacingAndGlyphs" textLength="74" x="209.75" y="434.0386">re-encrypted</text><text fill="#000000" font-family="sans-serif" font-size="11" lengthAdjust="spacingAndGlyphs" textLength="21" x="176.75" y="427.6362">yes</text><text fill="#000000" font-family="sans-serif" font-size="11" lengthAdjust="spacingAndGlyphs" textLength="14" x="295.75" y="427.6362">no</text><rect fill="#FEFECE" filter="url(#fmhpxcdlu5ogc)" height="33.9688" rx="12.5" ry="12.5" style="stroke: #A80036; stroke-width: 1.5;" width="173" x="52.5" y="452.2305"/><text fill="#000000" font-family="sans-serif" font-size="12" lengthAdjust="spacingAndGlyphs" textLength="149" x="66.5" y="473.3691">GATT Client request sent</text><rect fill="#23DB2B" filter="url(#fmhpxcdlu5ogc)" height="33.9688" rx="12.5" ry="12.5" style="stroke: #A80036; stroke-width: 1.5;" width="204" x="37" y="506.1992"/><text fill="#000000" font-family="sans-serif" font-size="12" lengthAdjust="spacingAndGlyphs" textLength="180" x="51" y="527.3379">App receives GATT Response</text><ellipse cx="139" cy="571.168" fill="#FFFFFF" filter="url(#fmhpxcdlu5ogc)" rx="11" ry="11" style="stroke: #000000; stroke-width: 1.0;"/><ellipse cx="139" cy="571.168" fill="#000000" rx="6" ry="6" style="stroke: #7F7F7F; stroke-width: 1.0;"/><rect fill="#FEFECE" filter="url(#fmhpxcdlu5ogc)" height="33.9688" rx="12.5" ry="12.5" style="stroke: #A80036; stroke-width: 1.5;" width="187" x="261" y="452.2305"/><text fill="#000000" font-family="sans-serif" font-size="12" lengthAdjust="spacingAndGlyphs" textLength="163" x="275" y="473.3691">delete bonding information</text><polygon fill="#FEFECE" filter="url(#fmhpxcdlu5ogc)" points="208.75,300.8594,284.75,300.8594,296.75,312.8594,284.75,324.8594,208.75,324.8594,196.75,312.8594,208.75,300.8594" style="stroke: #A80036; stroke-width: 1.5;"/><text fill="#000000" font-family="sans-serif" font-size="11" lengthAdjust="spacingAndGlyphs" textLength="21" x="250.75" y="335.0698">yes</text><text fill="#000000" font-family="sans-serif" font-size="11" lengthAdjust="spacingAndGlyphs" textLength="76" x="208.75" y="316.6675">LTK available</text><polygon fill="#FEFECE" filter="url(#fmhpxcdlu5ogc)" points="246.75,602.168,258.75,614.168,246.75,626.168,234.75,614.168,246.75,602.168" style="stroke: #A80036; stroke-width: 1.5;"/><rect fill="#FEFECE" filter="url(#fmhpxcdlu5ogc)" height="33.9688" rx="12.5" ry="12.5" style="stroke: #A80036; stroke-width: 1.5;" width="96" x="198.75" y="646.168"/><text fill="#000000" font-family="sans-serif" font-size="12" lengthAdjust="spacingAndGlyphs" textLength="72" x="212.75" y="667.3066">start pairing</text><polygon fill="#FEFECE" filter="url(#fmhpxcdlu5ogc)" points="228.75,700.1367,264.75,700.1367,276.75,712.1367,264.75,724.1367,228.75,724.1367,216.75,712.1367,228.75,700.1367" style="stroke: #A80036; stroke-width: 1.5;"/><text fill="#000000" font-family="sans-serif" font-size="11" lengthAdjust="spacingAndGlyphs" textLength="36" x="228.75" y="715.9448">paired</text><text fill="#000000" font-family="sans-serif" font-size="11" lengthAdjust="spacingAndGlyphs" textLength="21" x="195.75" y="709.5425">yes</text><text fill="#000000" font-family="sans-serif" font-size="11" lengthAdjust="spacingAndGlyphs" textLength="14" x="276.75" y="709.5425">no</text><rect fill="#FEFECE" filter="url(#fmhpxcdlu5ogc)" height="33.9688" rx="12.5" ry="12.5" style="stroke: #A80036; stroke-width: 1.5;" width="173" x="26.5" y="734.1367"/><text fill="#000000" font-family="sans-serif" font-size="12" lengthAdjust="spacingAndGlyphs" textLength="149" x="40.5" y="755.2754">GATT Client request sent</text><rect fill="#23DB2B" filter="url(#fmhpxcdlu5ogc)" height="33.9688" rx="12.5" ry="12.5" style="stroke: #A80036; stroke-width: 1.5;" width="204" x="11" y="802.0742"/><text fill="#000000" font-family="sans-serif" font-size="12" lengthAdjust="spacingAndGlyphs" textLength="180" x="25" y="823.2129">App receives GATT Response</text><ellipse cx="113" cy="869.043" fill="#FFFFFF" filter="url(#fmhpxcdlu5ogc)" rx="11" ry="11" style="stroke: #000000; stroke-width: 1.0;"/><ellipse cx="113" cy="869.043" fill="#000000" rx="6" ry="6" style="stroke: #7F7F7F; stroke-width: 1.0;"/><rect fill="#FD5B41" filter="url(#fmhpxcdlu5ogc)" height="47.9375" rx="12.5" ry="12.5" style="stroke: #A80036; stroke-width: 1.5;" width="291" x="235" y="734.1367"/><text fill="#000000" font-family="sans-serif" font-size="12" lengthAdjust="spacingAndGlyphs" textLength="267" x="249" y="755.2754">App receives GATT_QUERY_COMPLETE event</text><text fill="#000000" font-family="sans-serif" font-size="12" lengthAdjust="spacingAndGlyphs" textLength="192" x="253" y="769.2441">with ATT_ERROR_INSUFFICIENT_X</text><ellipse cx="380.5" cy="827.043" fill="#FFFFFF" filter="url(#fmhpxcdlu5ogc)" rx="11" ry="11" style="stroke: #000000; stroke-width: 1.0;"/><ellipse cx="380.5" cy="827.043" fill="#000000" rx="6" ry="6" style="stroke: #7F7F7F; stroke-width: 1.0;"/><rect fill="#FD5B41" filter="url(#fmhpxcdlu5ogc)" height="47.9375" rx="12.5" ry="12.5" style="stroke: #A80036; stroke-width: 1.5;" width="291" x="661.5" y="300.8594"/><text fill="#000000" font-family="sans-serif" font-size="12" lengthAdjust="spacingAndGlyphs" textLength="267" x="675.5" y="321.998">App receives GATT_QUERY_COMPLETE event</text><text fill="#000000" font-family="sans-serif" font-size="12" lengthAdjust="spacingAndGlyphs" textLength="192" x="695.5" y="335.9668">with ATT_ERROR_INSUFFICIENT_X</text><path d="M556,383.7969 L556,424.0625 A0,0 0 0 0 556,424.0625 L776,424.0625 A0,0 0 0 0 776,424.0625 L776,407.9297 L796,403.9297 L776,399.9297 L776,393.7969 L766,383.7969 L556,383.7969 A0,0 0 0 0 556,383.7969 " fill="#FBFB77" filter="url(#fmhpxcdlu5ogc)" style="stroke: #A80036; stroke-width: 1.0;"/><path d="M766,383.7969 L766,393.7969 L776,393.7969 L766,383.7969 " fill="#FBFB77" style="stroke: #A80036; stroke-width: 1.0;"/><text fill="#000000" font-family="sans-serif" font-size="13" lengthAdjust="spacingAndGlyphs" textLength="173" x="562" y="400.8638">App can trigger pairing and</text><text fill="#000000" font-family="sans-serif" font-size="13" lengthAdjust="spacingAndGlyphs" textLength="199" x="562" y="415.9966">repeat the GATT Client request</text><ellipse cx="807" cy="403.9297" fill="#FFFFFF" filter="url(#fmhpxcdlu5ogc)" rx="11" ry="11" style="stroke: #000000; stroke-width: 1.0;"/><ellipse cx="807" cy="403.9297" fill="#000000" rx="6" ry="6" style="stroke: #7F7F7F; stroke-width: 1.0;"/><rect fill="#23DB2B" filter="url(#fmhpxcdlu5ogc)" height="33.9688" rx="12.5" ry="12.5" style="stroke: #A80036; stroke-width: 1.5;" width="204" x="982.5" y="266.8594"/><text fill="#000000" font-family="sans-serif" font-size="12" lengthAdjust="spacingAndGlyphs" textLength="180" x="996.5" y="287.998">App receives GATT Response</text><ellipse cx="1084.5" cy="346.8281" fill="#FFFFFF" filter="url(#fmhpxcdlu5ogc)" rx="11" ry="11" style="stroke: #000000; stroke-width: 1.0;"/><ellipse cx="1084.5" cy="346.8281" fill="#000000" rx="6" ry="6" style="stroke: #7F7F7F; stroke-width: 1.0;"/><line style="stroke: #A80036; stroke-width: 1.5;" x1="805.6875" x2="805.6875" y1="50.9531" y2="70.9531"/><polygon fill="#A80036" points="801.6875,60.9531,805.6875,70.9531,809.6875,60.9531,805.6875,64.9531" style="stroke: #A80036; stroke-width: 1.0;"/><line style="stroke: #A80036; stroke-width: 1.5;" x1="805.6875" x2="805.6875" y1="104.9219" y2="124.9219"/><polygon fill="#A80036" points="801.6875,114.9219,805.6875,124.9219,809.6875,114.9219,805.6875,118.9219" style="stroke: #A80036; stroke-width: 1.0;"/><line style="stroke: #A80036; stroke-width: 1.5;" x1="805.6875" x2="805.6875" y1="158.8906" y2="178.8906"/><polygon fill="#A80036" points="801.6875,168.8906,805.6875,178.8906,809.6875,168.8906,805.6875,172.8906" style="stroke: #A80036; stroke-width: 1.0;"/><line style="stroke: #A80036; stroke-width: 1.5;" x1="139" x2="139" y1="486.1992" y2="506.1992"/><polygon fill="#A80036" points="135,496.1992,139,506.1992,143,496.1992,139,500.1992" style="stroke: #A80036; stroke-width: 1.0;"/><line style="stroke: #A80036; stroke-width: 1.5;" x1="139" x2="139" y1="540.168" y2="560.168"/><polygon fill="#A80036" points="135,550.168,139,560.168,143,550.168,139,554.168" style="stroke: #A80036; stroke-width: 1.0;"/><line style="stroke: #A80036; stroke-width: 1.5;" x1="197.75" x2="139" y1="430.2305" y2="430.2305"/><line style="stroke: #A80036; stroke-width: 1.5;" x1="139" x2="139" y1="430.2305" y2="452.2305"/><polygon fill="#A80036" points="135,442.2305,139,452.2305,143,442.2305,139,446.2305" style="stroke: #A80036; stroke-width: 1.0;"/><line style="stroke: #A80036; stroke-width: 1.5;" x1="295.75" x2="354.5" y1="430.2305" y2="430.2305"/><line style="stroke: #A80036; stroke-width: 1.5;" x1="354.5" x2="354.5" y1="430.2305" y2="452.2305"/><polygon fill="#A80036" points="350.5,442.2305,354.5,452.2305,358.5,442.2305,354.5,446.2305" style="stroke: #A80036; stroke-width: 1.0;"/><line style="stroke: #A80036; stroke-width: 1.5;" x1="354.5" x2="354.5" y1="486.1992" y2="587.168"/><line style="stroke: #A80036; stroke-width: 1.5;" x1="354.5" x2="246.75" y1="587.168" y2="587.168"/><line style="stroke: #A80036; stroke-width: 1.5;" x1="246.75" x2="246.75" y1="587.168" y2="602.168"/><polygon fill="#A80036" points="242.75,592.168,246.75,602.168,250.75,592.168,246.75,596.168" style="stroke: #A80036; stroke-width: 1.0;"/><line style="stroke: #A80036; stroke-width: 1.5;" x1="246.75" x2="246.75" y1="383.2305" y2="418.2305"/><polygon fill="#A80036" points="242.75,408.2305,246.75,418.2305,250.75,408.2305,246.75,412.2305" style="stroke: #A80036; stroke-width: 1.0;"/><line style="stroke: #A80036; stroke-width: 1.5;" x1="246.75" x2="246.75" y1="324.8594" y2="349.2617"/><polygon fill="#A80036" points="242.75,339.2617,246.75,349.2617,250.75,339.2617,246.75,343.2617" style="stroke: #A80036; stroke-width: 1.0;"/><line style="stroke: #A80036; stroke-width: 1.5;" x1="296.75" x2="468" y1="312.8594" y2="312.8594"/><polygon fill="#A80036" points="464,473.7148,468,483.7148,472,473.7148,468,477.7148" style="stroke: #A80036; stroke-width: 1.5;"/><line style="stroke: #A80036; stroke-width: 1.5;" x1="468" x2="468" y1="312.8594" y2="614.168"/><line style="stroke: #A80036; stroke-width: 1.5;" x1="468" x2="258.75" y1="614.168" y2="614.168"/><polygon fill="#A80036" points="268.75,610.168,258.75,614.168,268.75,618.168,264.75,614.168" style="stroke: #A80036; stroke-width: 1.0;"/><line style="stroke: #A80036; stroke-width: 1.5;" x1="246.75" x2="246.75" y1="626.168" y2="646.168"/><polygon fill="#A80036" points="242.75,636.168,246.75,646.168,250.75,636.168,246.75,640.168" style="stroke: #A80036; stroke-width: 1.0;"/><line style="stroke: #A80036; stroke-width: 1.5;" x1="113" x2="113" y1="768.1055" y2="802.0742"/><polygon fill="#A80036" points="109,792.0742,113,802.0742,117,792.0742,113,796.0742" style="stroke: #A80036; stroke-width: 1.0;"/><line style="stroke: #A80036; stroke-width: 1.5;" x1="113" x2="113" y1="836.043" y2="858.043"/><polygon fill="#A80036" points="109,848.043,113,858.043,117,848.043,113,852.043" style="stroke: #A80036; stroke-width: 1.0;"/><line style="stroke: #A80036; stroke-width: 1.5;" x1="380.5" x2="380.5" y1="782.0742" y2="816.043"/><polygon fill="#A80036" points="376.5,806.043,380.5,816.043,384.5,806.043,380.5,810.043" style="stroke: #A80036; stroke-width: 1.0;"/><line style="stroke: #A80036; stroke-width: 1.5;" x1="216.75" x2="113" y1="712.1367" y2="712.1367"/><line style="stroke: #A80036; stroke-width: 1.5;" x1="113" x2="113" y1="712.1367" y2="734.1367"/><polygon fill="#A80036" points="109,724.1367,113,734.1367,117,724.1367,113,728.1367" style="stroke: #A80036; stroke-width: 1.0;"/><line style="stroke: #A80036; stroke-width: 1.5;" x1="276.75" x2="380.5" y1="712.1367" y2="712.1367"/><line style="stroke: #A80036; stroke-width: 1.5;" x1="380.5" x2="380.5" y1="712.1367" y2="734.1367"/><polygon fill="#A80036" points="376.5,724.1367,380.5,734.1367,384.5,724.1367,380.5,728.1367" style="stroke: #A80036; stroke-width: 1.0;"/><line style="stroke: #A80036; stroke-width: 1.5;" x1="246.75" x2="246.75" y1="680.1367" y2="700.1367"/><polygon fill="#A80036" points="242.75,690.1367,246.75,700.1367,250.75,690.1367,246.75,694.1367" style="stroke: #A80036; stroke-width: 1.0;"/><line style="stroke: #A80036; stroke-width: 1.5;" x1="807" x2="807" y1="348.7969" y2="392.9297"/><polygon fill="#A80036" points="803,382.9297,807,392.9297,811,382.9297,807,386.9297" style="stroke: #A80036; stroke-width: 1.0;"/><line style="stroke: #A80036; stroke-width: 1.5;" x1="426.875" x2="246.75" y1="278.8594" y2="278.8594"/><line style="stroke: #A80036; stroke-width: 1.5;" x1="246.75" x2="246.75" y1="278.8594" y2="300.8594"/><polygon fill="#A80036" points="242.75,290.8594,246.75,300.8594,250.75,290.8594,246.75,294.8594" style="stroke: #A80036; stroke-width: 1.0;"/><line style="stroke: #A80036; stroke-width: 1.5;" x1="626.875" x2="807" y1="278.8594" y2="278.8594"/><line style="stroke: #A80036; stroke-width: 1.5;" x1="807" x2="807" y1="278.8594" y2="300.8594"/><polygon fill="#A80036" points="803,290.8594,807,300.8594,811,290.8594,807,294.8594" style="stroke: #A80036; stroke-width: 1.0;"/><line style="stroke: #A80036; stroke-width: 1.5;" x1="1084.5" x2="1084.5" y1="300.8281" y2="335.8281"/><polygon fill="#A80036" points="1080.5,325.8281,1084.5,335.8281,1088.5,325.8281,1084.5,329.8281" style="stroke: #A80036; stroke-width: 1.0;"/><line style="stroke: #A80036; stroke-width: 1.5;" x1="628.1875" x2="526.875" y1="244.8594" y2="244.8594"/><line style="stroke: #A80036; stroke-width: 1.5;" x1="526.875" x2="526.875" y1="244.8594" y2="266.8594"/><polygon fill="#A80036" points="522.875,256.8594,526.875,266.8594,530.875,256.8594,526.875,260.8594" style="stroke: #A80036; stroke-width: 1.0;"/><line style="stroke: #A80036; stroke-width: 1.5;" x1="983.1875" x2="1084.5" y1="244.8594" y2="244.8594"/><line style="stroke: #A80036; stroke-width: 1.5;" x1="1084.5" x2="1084.5" y1="244.8594" y2="266.8594"/><polygon fill="#A80036" points="1080.5,256.8594,1084.5,266.8594,1088.5,256.8594,1084.5,260.8594" style="stroke: #A80036; stroke-width: 1.0;"/><line style="stroke: #A80036; stroke-width: 1.5;" x1="805.6875" x2="805.6875" y1="212.8594" y2="232.8594"/><polygon fill="#A80036" points="801.6875,222.8594,805.6875,232.8594,809.6875,222.8594,805.6875,226.8594" style="stroke: #A80036; stroke-width: 1.0;"/><!--MD5=[28a75a865dbb626f248bcecf3eb0f821]
@startuml
title Reactive Authentication
start
: A connects to B;
: App triggers GATT Client request on A;
: GATT Client request sent;

if (GATT Server returns an ATT_ERROR_INSUFFICIENT_X error) then (yes)
  if (ENABLE_GATT_CLIENT_PAIRING) then (yes)
    if (LTK available) then (yes)
      : start encryption;
      if (re-encrypted) then (yes)
        : GATT Client request sent;
        #23DB2B : App receives GATT Response;
        stop
      else (no)
        : delete bonding information;
      endif
      
   endif
    
    : start pairing;
      if (paired) then (yes)
        : GATT Client request sent;
        #23DB2B : App receives GATT Response;
        stop
      else (no)
        #FD5B41: App receives GATT_QUERY_COMPLETE event 
          with ATT_ERROR_INSUFFICIENT_X;
        stop
      endif
  else (no)
    #FD5B41: App receives GATT_QUERY_COMPLETE event 
          with ATT_ERROR_INSUFFICIENT_X;
    stop
    note left
      App can trigger pairing and 
      repeat the GATT Client request
    end note
  endif
else (no)
  #23DB2B : App receives GATT Response;
  stop
endif
@enduml

PlantUML version 1.2020.20(Sat Nov 21 10:02:45 UTC 2020)
(GPL source distribution)
Java Runtime: Java(TM) SE Runtime Environment
JVM: Java HotSpot(TM) 64-Bit Server VM
Default Encoding: UTF-8
Language: en
Country: US
--></g></svg>